<svg width="16" height="14" viewBox="0 0 16 14" fill="none" xmlns="http://www.w3.org/2000/svg">
<path d="M8.76349 7L8.38068 6.62216L9.95668 5.04616H5.875V4.49929H9.95668L8.38068 2.92827L8.76349 2.54545L10.9908 4.77273L8.76349 7Z" fill="white"/>
<path d="M4.65341 7.90909V13H4.05682L1.28267 9.00284H1.23295V13H0.616477V7.90909H1.21307L3.99716 11.9162H4.04688V7.90909H4.65341ZM7.40829 13.0795C7.04039 13.0795 6.72304 12.9983 6.45623 12.8359C6.19108 12.6719 5.98642 12.4432 5.84224 12.1499C5.69972 11.8549 5.62846 11.5118 5.62846 11.1207C5.62846 10.7296 5.69972 10.3849 5.84224 10.0866C5.98642 9.7867 6.18694 9.55303 6.4438 9.38565C6.70233 9.21662 7.00394 9.1321 7.34863 9.1321C7.5475 9.1321 7.74387 9.16525 7.93777 9.23153C8.13166 9.29782 8.30815 9.40554 8.46724 9.55469C8.62633 9.70218 8.75311 9.89773 8.84757 10.1413C8.94203 10.3849 8.98926 10.6849 8.98926 11.0412V11.2898H6.04608V10.7827H8.39267C8.39267 10.5672 8.34958 10.375 8.26341 10.206C8.17889 10.0369 8.05791 9.90353 7.90048 9.80575C7.7447 9.70798 7.56075 9.65909 7.34863 9.65909C7.11497 9.65909 6.91279 9.71709 6.7421 9.8331C6.57306 9.94744 6.44297 10.0966 6.35183 10.2805C6.26068 10.4645 6.21511 10.6617 6.21511 10.8722V11.2102C6.21511 11.4986 6.26483 11.743 6.36426 11.9435C6.46535 12.1424 6.60538 12.294 6.78436 12.3984C6.96333 12.5012 7.17131 12.5526 7.40829 12.5526C7.56241 12.5526 7.70162 12.531 7.82591 12.4879C7.95185 12.4432 8.0604 12.3769 8.15154 12.2891C8.24269 12.1996 8.31312 12.0885 8.36284 11.956L8.9296 12.1151C8.86994 12.3073 8.76968 12.4763 8.62882 12.6222C8.48796 12.7663 8.31395 12.879 8.1068 12.9602C7.89965 13.0398 7.66681 13.0795 7.40829 13.0795ZM10.2166 9.18182L11.1314 10.7429L12.0462 9.18182H12.7223L11.4893 11.0909L12.7223 13H12.0462L11.1314 11.5185L10.2166 13H9.54048L10.7536 11.0909L9.54048 9.18182H10.2166ZM15.2199 9.18182V9.67898H13.2412V9.18182H15.2199ZM13.8179 8.26705H14.4046V11.9062C14.4046 12.072 14.4286 12.1963 14.4767 12.2791C14.5264 12.3603 14.5893 12.415 14.6656 12.4432C14.7435 12.4697 14.8255 12.483 14.9117 12.483C14.9763 12.483 15.0293 12.4796 15.0708 12.473C15.1122 12.4647 15.1453 12.4581 15.1702 12.4531L15.2895 12.9801C15.2497 12.995 15.1942 13.0099 15.123 13.0249C15.0517 13.0414 14.9614 13.0497 14.852 13.0497C14.6863 13.0497 14.5239 13.0141 14.3648 12.9428C14.2074 12.8716 14.0764 12.763 13.972 12.6172C13.8693 12.4714 13.8179 12.2874 13.8179 12.0653V8.26705Z" fill="white"/>
</svg>
