<svg width="13" height="21" viewBox="0 0 13 21" fill="none" xmlns="http://www.w3.org/2000/svg">
<path d="M9.94477 3.44078C9.66684 3.16544 9.36479 2.90796 9.0382 2.66996C7.65002 1.65583 5.85526 0.695647 4.07448 0.952632C0.415051 1.48105 -1.02274 6.99937 2.39911 8.87342C3.08824 9.25048 3.87398 9.31924 4.63366 9.1702C5.18385 9.06199 5.70496 8.84508 6.19261 8.58527C6.7435 8.29358 7.30493 7.61321 7.87866 7.43378C8.79087 7.14694 9.44383 8.5481 9.59243 9.19719C9.94741 10.735 9.51937 12.4228 9.07483 13.8831C9.07483 13.8831 7.4863 17.3082 4.83332 19.1342L5.57107 20.6C5.57107 20.6 10.6088 17.7119 11.6868 13.4199C11.9883 12.2199 12.3502 11.1246 12.384 9.85954C12.4482 7.47455 11.6537 5.13258 9.94477 3.44078Z" fill="white"/>
</svg>
