<svg width="4" height="19" viewBox="0 0 4 19" fill="none" xmlns="http://www.w3.org/2000/svg">
<path d="M3.52386 0.550029L3.34064 13.0953L1.36337 13.0933L1.20568 0.547671L3.52386 0.550029ZM2.34688 18.1398C1.92642 18.1393 1.56578 17.9884 1.26495 17.6869C0.964119 17.3855 0.813918 17.0246 0.814346 16.6041C0.814773 16.1836 0.965708 15.823 1.26715 15.5222C1.56859 15.2213 1.92954 15.0711 2.35 15.0716C2.77045 15.072 3.13109 15.2229 3.43192 15.5244C3.73275 15.8258 3.88295 16.1868 3.88253 16.6072C3.88224 16.8856 3.81096 17.1412 3.66868 17.374C3.53208 17.6069 3.34723 17.7942 3.11413 17.936C2.88672 18.0721 2.63097 18.14 2.34688 18.1398Z" fill="white"/>
</svg>
