<svg width="34" height="16" viewBox="0 0 34 16" fill="none" xmlns="http://www.w3.org/2000/svg">
<path d="M15.9183 7L13.6911 4.77273L15.9183 2.54545L16.3011 2.9233L14.7251 4.49929H18.8068V5.04616H14.7251L16.3011 6.61719L15.9183 7Z" fill="white"/>
<path d="M0.338068 9.45597V8.90909H4.15625V9.45597H2.5554V14H1.93892V9.45597H0.338068ZM5.02814 14V10.1818H5.61479V14H5.02814ZM5.32644 9.54545C5.21209 9.54545 5.11349 9.50651 5.03063 9.42862C4.94943 9.35073 4.90882 9.2571 4.90882 9.14773C4.90882 9.03835 4.94943 8.94472 5.03063 8.86683C5.11349 8.78894 5.21209 8.75 5.32644 8.75C5.44078 8.75 5.53856 8.78894 5.61976 8.86683C5.70262 8.94472 5.74405 9.03835 5.74405 9.14773C5.74405 9.2571 5.70262 9.35073 5.61976 9.42862C5.53856 9.50651 5.44078 9.54545 5.32644 9.54545ZM8.34979 10.1818V10.679H6.37109V10.1818H8.34979ZM6.9478 9.26705H7.53445V12.9062C7.53445 13.072 7.55848 13.1963 7.60653 13.2791C7.65625 13.3603 7.71922 13.415 7.79545 13.4432C7.87334 13.4697 7.95537 13.483 8.04155 13.483C8.10618 13.483 8.15921 13.4796 8.20064 13.473C8.24207 13.4647 8.27521 13.4581 8.30007 13.4531L8.41939 13.9801C8.37962 13.995 8.3241 14.0099 8.25284 14.0249C8.18158 14.0414 8.09126 14.0497 7.98189 14.0497C7.81617 14.0497 7.65376 14.0141 7.49467 13.9428C7.33724 13.8716 7.20632 13.763 7.10192 13.6172C6.99917 13.4714 6.9478 13.2874 6.9478 13.0653V9.26705ZM9.90092 8.90909V14H9.31428V8.90909H9.90092ZM12.5763 14.0795C12.2084 14.0795 11.891 13.9983 11.6242 13.8359C11.359 13.6719 11.1544 13.4432 11.0102 13.1499C10.8677 12.8549 10.7964 12.5118 10.7964 12.1207C10.7964 11.7296 10.8677 11.3849 11.0102 11.0866C11.1544 10.7867 11.3549 10.553 11.6118 10.3857C11.8703 10.2166 12.1719 10.1321 12.5166 10.1321C12.7155 10.1321 12.9118 10.1652 13.1057 10.2315C13.2996 10.2978 13.4761 10.4055 13.6352 10.5547C13.7943 10.7022 13.9211 10.8977 14.0155 11.1413C14.11 11.3849 14.1572 11.6849 14.1572 12.0412V12.2898H11.214V11.7827H13.5606C13.5606 11.5672 13.5175 11.375 13.4314 11.206C13.3469 11.0369 13.2259 10.9035 13.0684 10.8058C12.9127 10.708 12.7287 10.6591 12.5166 10.6591C12.2829 10.6591 12.0808 10.7171 11.9101 10.8331C11.741 10.9474 11.6109 11.0966 11.5198 11.2805C11.4287 11.4645 11.3831 11.6617 11.3831 11.8722V12.2102C11.3831 12.4986 11.4328 12.743 11.5322 12.9435C11.6333 13.1424 11.7733 13.294 11.9523 13.3984C12.1313 13.5012 12.3393 13.5526 12.5763 13.5526C12.7304 13.5526 12.8696 13.531 12.9939 13.4879C13.1198 13.4432 13.2284 13.3769 13.3195 13.2891C13.4107 13.1996 13.4811 13.0885 13.5308 12.956L14.0976 13.1151C14.0379 13.3073 13.9376 13.4763 13.7968 13.6222C13.6559 13.7663 13.4819 13.879 13.2748 13.9602C13.0676 14.0398 12.8348 14.0795 12.5763 14.0795ZM17.0184 15.4318V10.1818H17.5851V10.7884H17.6547C17.6978 10.7221 17.7575 10.6375 17.8337 10.5348C17.9116 10.4304 18.0226 10.3376 18.1668 10.2564C18.3126 10.1735 18.5099 10.1321 18.7584 10.1321C19.0799 10.1321 19.3633 10.2125 19.6086 10.3732C19.8538 10.534 20.0452 10.7618 20.1828 11.0568C20.3203 11.3518 20.3891 11.6998 20.3891 12.1009C20.3891 12.5052 20.3203 12.8557 20.1828 13.1523C20.0452 13.4473 19.8547 13.676 19.6111 13.8384C19.3675 13.9992 19.0866 14.0795 18.7684 14.0795C18.5231 14.0795 18.3267 14.0389 18.1792 13.9577C18.0318 13.8749 17.9182 13.7812 17.8387 13.6768C17.7591 13.5708 17.6978 13.483 17.6547 13.4134H17.605V15.4318H17.0184ZM17.5951 12.0909C17.5951 12.3793 17.6373 12.6336 17.7219 12.854C17.8064 13.0728 17.9298 13.2443 18.0922 13.3686C18.2546 13.4912 18.4535 13.5526 18.6888 13.5526C18.9341 13.5526 19.1388 13.4879 19.3028 13.3587C19.4685 13.2277 19.5928 13.0521 19.6757 12.8317C19.7602 12.6096 19.8025 12.3627 19.8025 12.0909C19.8025 11.8224 19.761 11.5805 19.6782 11.3651C19.597 11.148 19.4735 10.9764 19.3078 10.8505C19.1437 10.7229 18.9374 10.6591 18.6888 10.6591C18.4502 10.6591 18.2497 10.7196 18.0873 10.8406C17.9249 10.9599 17.8022 11.1272 17.7194 11.3427C17.6365 11.5565 17.5951 11.8059 17.5951 12.0909ZM22.4076 14.0895C22.1656 14.0895 21.9461 14.0439 21.7488 13.9528C21.5516 13.86 21.395 13.7266 21.279 13.5526C21.163 13.3769 21.105 13.1648 21.105 12.9162C21.105 12.6974 21.1481 12.5201 21.2343 12.3842C21.3205 12.2467 21.4356 12.139 21.5798 12.0611C21.724 11.9832 21.8831 11.9252 22.0571 11.8871C22.2327 11.8473 22.4092 11.8158 22.5866 11.7926C22.8186 11.7628 23.0067 11.7404 23.1508 11.7255C23.2967 11.7089 23.4027 11.6816 23.469 11.6435C23.537 11.6054 23.5709 11.5391 23.5709 11.4446V11.4247C23.5709 11.1795 23.5038 10.9889 23.3696 10.853C23.237 10.7171 23.0357 10.6491 22.7655 10.6491C22.4855 10.6491 22.2659 10.7105 22.1068 10.8331C21.9477 10.9557 21.8358 11.0866 21.7712 11.2259L21.2144 11.027C21.3138 10.795 21.4464 10.6143 21.6121 10.4851C21.7795 10.3542 21.9618 10.263 22.159 10.2116C22.3579 10.1586 22.5534 10.1321 22.7456 10.1321C22.8683 10.1321 23.0091 10.147 23.1682 10.1768C23.329 10.205 23.4839 10.2638 23.6331 10.3533C23.7839 10.4428 23.909 10.5779 24.0084 10.7585C24.1079 10.9392 24.1576 11.1811 24.1576 11.4844V14H23.5709V13.483H23.5411C23.5013 13.5658 23.435 13.6545 23.3422 13.7489C23.2494 13.8434 23.126 13.9238 22.9719 13.9901C22.8177 14.0563 22.6296 14.0895 22.4076 14.0895ZM22.4971 13.5625C22.7291 13.5625 22.9246 13.5169 23.0837 13.4258C23.2445 13.3346 23.3654 13.217 23.4466 13.0728C23.5295 12.9286 23.5709 12.777 23.5709 12.6179V12.081C23.5461 12.1108 23.4914 12.1381 23.4069 12.163C23.324 12.1862 23.2279 12.2069 23.1185 12.2251C23.0108 12.2417 22.9056 12.2566 22.8028 12.2699C22.7017 12.2815 22.6197 12.2914 22.5567 12.2997C22.4043 12.3196 22.2617 12.3519 22.1292 12.3967C21.9983 12.4397 21.8922 12.5052 21.811 12.593C21.7314 12.6792 21.6917 12.7969 21.6917 12.946C21.6917 13.1499 21.7671 13.304 21.9179 13.4084C22.0703 13.5111 22.2634 13.5625 22.4971 13.5625ZM26.7695 15.5114C26.4862 15.5114 26.2425 15.4749 26.0387 15.402C25.8349 15.3307 25.665 15.2363 25.5291 15.1186C25.3949 15.0026 25.288 14.8783 25.2085 14.7457L25.6758 14.4176C25.7288 14.4872 25.7959 14.5668 25.8771 14.6562C25.9583 14.7474 26.0694 14.8261 26.2102 14.8924C26.3527 14.9603 26.5392 14.9943 26.7695 14.9943C27.0778 14.9943 27.3321 14.9197 27.5327 14.7706C27.7332 14.6214 27.8335 14.3878 27.8335 14.0696V13.294H27.7837C27.7406 13.3636 27.6793 13.4498 27.5998 13.5526C27.5219 13.6536 27.4092 13.744 27.2617 13.8235C27.1159 13.9014 26.9187 13.9403 26.6701 13.9403C26.3619 13.9403 26.0851 13.8674 25.8398 13.7216C25.5962 13.5758 25.4032 13.3636 25.2607 13.0852C25.1198 12.8068 25.0494 12.4687 25.0494 12.071C25.0494 11.6799 25.1181 11.3394 25.2557 11.0494C25.3932 10.7577 25.5846 10.5323 25.8299 10.3732C26.0752 10.2125 26.3585 10.1321 26.68 10.1321C26.9286 10.1321 27.1258 10.1735 27.2717 10.2564C27.4192 10.3376 27.5318 10.4304 27.6097 10.5348C27.6893 10.6375 27.7506 10.7221 27.7937 10.7884H27.8533V10.1818H28.4201V14.1094C28.4201 14.4375 28.3455 14.7043 28.1964 14.9098C28.0489 15.117 27.85 15.2686 27.5998 15.3647C27.3512 15.4625 27.0745 15.5114 26.7695 15.5114ZM26.7496 13.4134C26.985 13.4134 27.1838 13.3595 27.3462 13.2518C27.5086 13.1441 27.6321 12.9891 27.7166 12.7869C27.8011 12.5848 27.8434 12.3428 27.8434 12.0611C27.8434 11.786 27.802 11.5432 27.7191 11.3327C27.6362 11.1223 27.5136 10.9574 27.3512 10.8381C27.1888 10.7187 26.9883 10.6591 26.7496 10.6591C26.5011 10.6591 26.2939 10.7221 26.1282 10.848C25.9641 10.974 25.8407 11.143 25.7578 11.3551C25.6766 11.5672 25.636 11.8026 25.636 12.0611C25.636 12.3262 25.6774 12.5607 25.7603 12.7646C25.8448 12.9667 25.9691 13.1258 26.1332 13.2418C26.2989 13.3562 26.5044 13.4134 26.7496 13.4134ZM31.0948 14.0795C30.7269 14.0795 30.4096 13.9983 30.1428 13.8359C29.8776 13.6719 29.6729 13.4432 29.5288 13.1499C29.3862 12.8549 29.315 12.5118 29.315 12.1207C29.315 11.7296 29.3862 11.3849 29.5288 11.0866C29.6729 10.7867 29.8735 10.553 30.1303 10.3857C30.3888 10.2166 30.6905 10.1321 31.0352 10.1321C31.234 10.1321 31.4304 10.1652 31.6243 10.2315C31.8182 10.2978 31.9947 10.4055 32.1538 10.5547C32.3129 10.7022 32.4396 10.8977 32.5341 11.1413C32.6286 11.3849 32.6758 11.6849 32.6758 12.0412V12.2898H29.7326V11.7827H32.0792C32.0792 11.5672 32.0361 11.375 31.9499 11.206C31.8654 11.0369 31.7444 10.9035 31.587 10.8058C31.4312 10.708 31.2473 10.6591 31.0352 10.6591C30.8015 10.6591 30.5993 10.7171 30.4286 10.8331C30.2596 10.9474 30.1295 11.0966 30.0384 11.2805C29.9472 11.4645 29.9016 11.6617 29.9016 11.8722V12.2102C29.9016 12.4986 29.9513 12.743 30.0508 12.9435C30.1519 13.1424 30.2919 13.294 30.4709 13.3984C30.6499 13.5012 30.8578 13.5526 31.0948 13.5526C31.2489 13.5526 31.3881 13.531 31.5124 13.4879C31.6384 13.4432 31.7469 13.3769 31.8381 13.2891C31.9292 13.1996 31.9996 13.0885 32.0494 12.956L32.6161 13.1151C32.5565 13.3073 32.4562 13.4763 32.3153 13.6222C32.1745 13.7663 32.0005 13.879 31.7933 13.9602C31.5862 14.0398 31.3533 14.0795 31.0948 14.0795Z" fill="white"/>
</svg>
