<svg width="5" height="14" viewBox="0 0 5 14" fill="none" xmlns="http://www.w3.org/2000/svg">
<path d="M2.53867 13.1722C2.11823 13.1764 1.75594 13.0295 1.4518 12.7314C1.14766 12.4333 0.993484 12.074 0.989267 11.6536C0.985051 11.2332 1.13199 10.8709 1.4301 10.5667C1.7282 10.2626 2.08746 10.1084 2.5079 10.1042C2.92833 10.1 3.29062 10.2469 3.59476 10.545C3.8989 10.8431 4.05308 11.2024 4.05729 11.6228C4.06009 11.9012 3.99163 12.1576 3.85193 12.392C3.71791 12.6263 3.53514 12.8156 3.30362 12.96C3.07773 13.0986 2.82274 13.1694 2.53867 13.1722ZM2.44123 3.45681C2.0208 3.46102 1.65851 3.31408 1.35437 3.01598C1.05023 2.71788 0.896052 2.35861 0.891836 1.93818C0.887619 1.51775 1.03456 1.15546 1.33266 0.851317C1.63076 0.547176 1.99003 0.392998 2.41047 0.388782C2.8309 0.384565 3.19319 0.531508 3.49733 0.829609C3.80147 1.12771 3.95565 1.48698 3.95986 1.90741C3.96265 2.18581 3.8942 2.44219 3.7545 2.67655C3.62048 2.91086 3.43771 3.10021 3.20619 3.24458C2.9803 3.38322 2.72531 3.45396 2.44123 3.45681Z" fill="white"/>
</svg>
