<svg width="5" height="18" viewBox="0 0 5 18" fill="none" xmlns="http://www.w3.org/2000/svg">
<path d="M3.93521 10.6233L3.80306 11.5444C3.70943 12.1925 3.56488 12.8864 3.3694 13.6259C3.1796 14.3654 2.98108 15.0624 2.77385 15.7167C2.56661 16.3711 2.3957 16.8918 2.2611 17.2788L0.72703 17.2858C0.799229 16.9218 0.893621 16.4413 1.01021 15.8441C1.12679 15.247 1.24305 14.5789 1.35899 13.8397C1.48064 13.1062 1.57947 12.3557 1.65551 11.5883L1.75341 10.6333L3.93521 10.6233ZM2.67502 3.43582C2.25457 3.43774 1.89309 3.28883 1.59058 2.98907C1.28807 2.68932 1.13585 2.32921 1.13393 1.90876C1.132 1.48831 1.28092 1.12683 1.58067 0.824322C1.88043 0.521811 2.24053 0.369593 2.66098 0.367668C3.08143 0.365744 3.44291 0.514659 3.74542 0.814414C4.04793 1.11417 4.20015 1.47427 4.20208 1.89472C4.20335 2.17313 4.1335 2.42913 3.99252 2.66273C3.85723 2.89631 3.67343 3.08465 3.44112 3.22776C3.21448 3.36517 2.95911 3.43452 2.67502 3.43582Z" fill="white"/>
</svg>
