<svg width="12" height="19" viewBox="0 0 12 19" fill="none" xmlns="http://www.w3.org/2000/svg">
<path d="M4.83758 13.2682L4.83391 13.166C4.80631 12.0811 4.88887 11.2139 5.0816 10.5646C5.27432 9.91517 5.56228 9.38461 5.94547 8.97286C6.32866 8.56111 6.79247 8.17774 7.3369 7.82274C7.66457 7.60629 7.95684 7.35416 8.21372 7.06635C8.4704 6.77285 8.66876 6.43881 8.80881 6.06422C8.95454 5.68943 9.01935 5.27775 9.00324 4.82918C8.98325 4.27272 8.83532 3.79476 8.55944 3.39532C8.28356 2.99587 7.92303 2.69328 7.47786 2.48754C7.03269 2.28179 6.54323 2.18851 6.00948 2.20768C5.54387 2.22441 5.09876 2.33705 4.67416 2.54561C4.24955 2.75416 3.8999 3.0709 3.62521 3.4958C3.35051 3.92071 3.20248 4.46899 3.18112 5.14065L1.03478 5.21774C1.04553 4.25082 1.26569 3.41568 1.69527 2.71231C2.13052 2.00873 2.71638 1.46178 3.45284 1.07145C4.19498 0.680922 5.02598 0.469137 5.94584 0.436096C6.9452 0.400199 7.8211 0.567728 8.57353 0.938684C9.33165 1.30944 9.92472 1.83394 10.3528 2.51219C10.7865 3.19024 11.0192 3.97216 11.051 4.85796C11.0735 5.48255 10.9972 6.051 10.8223 6.56329C10.6531 7.07538 10.3968 7.53658 10.0533 7.9469C9.71557 8.35702 9.30235 8.72436 8.81369 9.04893C8.32523 9.37917 7.93674 9.72289 7.64824 10.0801C7.35954 10.4316 7.15551 10.8454 7.03617 11.3216C6.91682 11.7978 6.86411 12.3881 6.87805 13.0926L6.88172 13.1948L4.83758 13.2682ZM6.10891 18.2713C5.68872 18.2864 5.32275 18.1489 5.011 17.8587C4.69925 17.5686 4.53583 17.2134 4.52073 16.7933C4.50564 16.3731 4.64316 16.0071 4.93329 15.6953C5.22343 15.3836 5.57858 15.2202 5.99877 15.2051C6.41895 15.19 6.78492 15.3275 7.09667 15.6176C7.40842 15.9078 7.57185 16.2629 7.58694 16.6831C7.59693 16.9613 7.53513 17.2194 7.40154 17.4573C7.27363 17.695 7.09582 17.889 6.86811 18.0393C6.64588 18.1838 6.39281 18.2611 6.10891 18.2713Z" fill="white"/>
</svg>
